<?xml version="1.0" standalone="no"?>
<!DOCTYPE svg PUBLIC "-//W3C//DTD SVG 20010904//EN"
 "http://www.w3.org/TR/2001/REC-SVG-20010904/DTD/svg10.dtd">
<svg version="1.0" xmlns="http://www.w3.org/2000/svg"
 width="200.000000pt" height="200.000000pt" viewBox="0 0 200.000000 200.000000"
 preserveAspectRatio="xMidYMid meet">
<metadata>
Created by potrace 1.14, written by Peter Selinger 2001-2017
</metadata>
<g transform="translate(0.000000,200.000000) scale(0.100000,-0.100000)"
fill="#000000" stroke="none">
<path d="M0 1000 l0 -1000 1000 0 1000 0 0 1000 0 1000 -1000 0 -1000 0 0
-1000z m1187 798 c147 -44 243 -120 284 -225 30 -76 32 -214 6 -290 -22 -63
-93 -146 -151 -175 l-41 -21 40 -12 c103 -30 188 -104 231 -198 21 -48 29 -81
32 -149 10 -199 -87 -349 -274 -428 -118 -49 -212 -60 -521 -60 -286 0 -321 5
-337 45 -3 9 -6 346 -6 749 0 772 -1 748 45 775 32 18 624 8 692 -11z"/>
<path d="M770 1370 l0 -212 133 4 c165 5 204 23 251 115 25 49 21 158 -7 208
-37 67 -95 89 -249 93 l-128 4 0 -212z"/>
<path d="M770 710 l0 -222 163 3 c151 4 166 6 212 30 86 44 126 129 106 228
-15 72 -51 118 -120 149 -51 24 -71 26 -208 30 l-153 4 0 -222z"/>
</g>
</svg>
